<svg width="172" height="32" viewBox="0 0 172 32" fill="none" xmlns="http://www.w3.org/2000/svg">
<path d="M17.3473 0C18.9986 0 20.3883 0.584115 21.5492 1.73601C22.7101 2.88799 23.2986 4.2671 23.2986 5.90575V7.95006C23.2986 9.58876 22.71 10.9841 21.5492 12.136C20.3883 13.2881 18.9986 13.8559 17.3473 13.8559H3.77684C3.6133 13.8559 3.48253 13.9208 3.36812 14.0343C3.25365 14.148 3.1883 14.2778 3.1883 14.4399V21.7086C3.1883 22.1467 3.04114 22.5199 2.73054 22.8281C2.41992 23.1364 2.02751 23.2986 1.58604 23.2986C1.14458 23.2986 0.768538 23.1364 0.457928 22.8281C0.14732 22.5199 0.000163895 22.1466 0.000163895 21.7086V14.4399C0.000163895 13.4016 0.359824 12.5254 1.0956 11.7953C1.83138 11.0653 2.73061 10.692 3.77701 10.692H17.3474C18.1159 10.692 18.7536 10.4162 19.293 9.88083C19.8326 9.34535 20.1106 8.71262 20.1106 7.95006V5.90584C20.1106 5.14327 19.8326 4.51048 19.293 3.97512C18.7535 3.43968 18.1159 3.16387 17.3474 3.16387H3.53158L10.5293 9.08587H5.60798L1.19354 5.35415C0.686727 4.96473 0.326986 4.47797 0.147156 3.87769C-0.049052 3.2774 -0.049052 2.66086 0.147156 2.06049C0.343363 1.44395 0.703022 0.94102 1.2426 0.567863C1.76579 0.194705 2.35441 0 3.00838 0H17.3473Z" fill="white"/>
<path d="M30.8449 0C31.2832 0 31.6565 0.165004 31.9649 0.478404C32.2733 0.791806 32.4356 1.1713 32.4356 1.61666V22.1222C32.4356 22.5677 32.2733 22.9636 31.9649 23.2771C31.6564 23.5905 31.283 23.7555 30.8449 23.7555C30.4065 23.7555 30.0169 23.5905 29.7085 23.2771C29.4002 22.9636 29.2378 22.5677 29.2378 22.1222V1.61674C29.2378 1.1713 29.4002 0.791891 29.7085 0.478487C30.0169 0.165087 30.4065 0 30.8449 0Z" fill="white"/>
<path d="M58.1062 20.6689C58.3839 21.0098 58.5146 21.3994 58.4655 21.8376C58.4166 22.2758 58.2368 22.633 57.8937 22.9089C57.5996 23.1524 57.2564 23.2823 56.8644 23.2823C56.3579 23.2823 55.9494 23.0875 55.639 22.7141L38.7446 2.61826C38.4668 2.27736 38.3361 1.88776 38.3851 1.44954C38.4178 1.01124 38.6138 0.654157 38.957 0.37822C39.3001 0.10228 39.6759 -0.0275598 40.1171 0.00487978C40.5582 0.0535798 40.934 0.232119 41.2118 0.57302L48.4172 9.16009L55.6391 0.57302C55.9168 0.232119 56.2764 0.0535798 56.7174 0.00487978C57.1586 -0.0275598 57.5506 0.10228 57.8938 0.37822C58.2369 0.654157 58.4166 1.01132 58.4657 1.44954C58.5147 1.88776 58.384 2.27744 58.1062 2.61826L50.5086 11.6436L58.1062 20.6689ZM47.3714 15.4095L41.228 22.7305C40.9013 23.1038 40.4928 23.2986 39.9863 23.2986C39.6105 23.2986 39.2673 23.1688 38.957 22.9253C38.6138 22.6493 38.4341 22.276 38.3851 21.8377C38.3524 21.3994 38.4831 21.0261 38.7609 20.6851L45.2801 12.926L47.3714 15.4095Z" fill="white"/>
<path d="M84.1448 20.6689C84.4226 21.0098 84.5533 21.3994 84.5039 21.8376C84.4551 22.2758 84.2756 22.633 83.9321 22.9089C83.6381 23.1524 83.2953 23.2823 82.9031 23.2823C82.3963 23.2823 81.9878 23.0875 81.6775 22.7141L64.7831 2.61826C64.5053 2.27736 64.3747 1.88776 64.4237 1.44954C64.4564 1.01124 64.6524 0.654157 64.9955 0.37822C65.3387 0.10228 65.7147 -0.0275598 66.1557 0.00487978C66.5968 0.0535798 66.9727 0.232119 67.2505 0.57302L74.4559 9.16009L81.6775 0.57302C81.9553 0.232119 82.315 0.0535798 82.756 0.00487978C83.1971 -0.0275598 83.5893 0.10228 83.9321 0.37822C84.2756 0.654157 84.4551 1.01132 84.5045 1.44954C84.5533 1.88776 84.4226 2.27744 84.1448 2.61826L76.5472 11.6436L84.1448 20.6689ZM73.4099 15.4095L67.2668 22.7305C66.9402 23.1038 66.5311 23.2986 66.025 23.2986C65.649 23.2986 65.3062 23.1688 64.9955 22.9253C64.6524 22.6493 64.4727 22.276 64.4237 21.8377C64.391 21.3994 64.5217 21.0261 64.7995 20.6851L71.3186 12.926L73.4099 15.4095Z" fill="white"/>
<path d="M125.525 23.2986C123.923 23.2986 122.551 22.7292 121.407 21.5903C120.264 20.4514 119.691 19.0848 119.691 17.4902V1.56191C119.691 1.1389 119.839 0.78091 120.149 0.471823C120.46 0.162734 120.819 0 121.26 0C121.701 0 122.061 0.162734 122.371 0.471823C122.682 0.78091 122.829 1.1389 122.829 1.56191V17.4902C122.829 18.2224 123.09 18.8569 123.613 19.3938C124.152 19.9144 124.789 20.1748 125.525 20.1748H140.508C140.949 20.1748 141.309 20.3213 141.619 20.6304C141.929 20.9394 142.076 21.2974 142.076 21.7367C142.076 22.176 141.929 22.5339 141.619 22.8431C141.309 23.1522 140.949 23.2986 140.508 23.2986H125.525Z" fill="white"/>
<path d="M1.84874 27.4749C3.19649 27.4749 4.17197 28.4184 4.17197 29.7213C4.17197 31.0177 3.19005 31.9675 1.82948 31.9675H0.00683594V27.475L1.84874 27.4749ZM0.764131 31.2871H1.868C2.7408 31.2871 3.40831 30.639 3.40831 29.7276C3.40831 28.8099 2.72161 28.1552 1.83592 28.1552H0.764131V31.2871Z" fill="white"/>
<path d="M10.9272 31.9678V27.4753H11.6845V31.9678H10.9272Z" fill="white"/>
<path d="M22.547 29.7602V31.416C22.0913 31.7625 21.4175 32.0001 20.8013 32.0001C19.4728 32.0001 18.4395 31.0053 18.4395 29.7217C18.4395 28.4381 19.4856 27.4562 20.8462 27.4562C21.488 27.4562 22.1298 27.7 22.5726 28.0851L22.1426 28.6435C21.796 28.3225 21.3147 28.1301 20.8462 28.1301C19.9284 28.1301 19.2096 28.8296 19.2096 29.7217C19.2096 30.6202 19.9348 31.3198 20.8526 31.3198C21.1863 31.3198 21.565 31.2042 21.8859 31.0117V29.7602H22.547Z" fill="white"/>
<path d="M29.5659 31.9678V27.4753H30.3232V31.9678H29.5659Z" fill="white"/>
<path d="M39.0927 28.1557V31.9678H38.3353V28.1557H36.917V27.4753H40.5174V28.1557H39.0927Z" fill="white"/>
<path d="M47.3044 30.9538L46.8743 31.9678H46.085L48.0681 27.4753H48.8446L50.8086 31.9678H50L49.5699 30.9538H47.3044ZM48.4339 28.2839L47.5867 30.2799H49.2811L48.4339 28.2839Z" fill="white"/>
<path d="M60.0525 31.2812V31.9678H57.3506V27.4753H58.1079V31.2812H60.0525Z" fill="white"/>
<path d="M74.3471 28.1557V31.9678H73.5899V28.1557H72.1719V27.4753H75.7723V28.1557H74.3471Z" fill="white"/>
<path d="M83.1245 28.1557V29.3686H85.3192V30.0489H83.1245V31.2875H85.6529V31.9678H82.3667V27.4753H85.5755V28.1557H83.1245Z" fill="white"/>
<path d="M96.2201 28.1492L95.7772 28.7012C95.45 28.3482 94.9816 28.1301 94.5256 28.1301C93.6273 28.1301 92.9215 28.8231 92.9215 29.7088C92.9215 30.5945 93.6273 31.2941 94.5256 31.2941C94.9751 31.2941 95.4376 31.0886 95.7772 30.7614L96.2266 31.262C95.7713 31.7112 95.1228 32.0001 94.4873 32.0001C93.172 32.0001 92.1514 31.0053 92.1514 29.7153C92.1514 28.4381 93.1843 27.4562 94.5133 27.4562C95.1481 27.4562 95.7837 27.7192 96.2201 28.1492Z" fill="white"/>
<path d="M106.081 31.9678V30.1066H103.701V31.9678H102.943V27.4753H103.701V29.4263H106.081V27.4753H106.839V31.9678H106.081Z" fill="white"/>
<path d="M117.117 31.9678L114.723 28.746V31.9678H113.965V27.4753H114.71L117.117 30.7035V27.4753H117.861V31.9678H117.117Z" fill="white"/>
<path d="M129.386 29.7217C129.386 31.0053 128.346 32.0001 127.004 32.0001C125.663 32.0001 124.624 31.0053 124.624 29.7217C124.624 28.4317 125.663 27.4562 127.004 27.4562C128.346 27.4562 129.386 28.4381 129.386 29.7217ZM125.394 29.7217C125.394 30.6138 126.132 31.3198 127.011 31.3198C127.89 31.3198 128.609 30.6138 128.609 29.7217C128.609 28.8296 127.89 28.1364 127.011 28.1364C126.125 28.1364 125.394 28.8296 125.394 29.7217Z" fill="white"/>
<path d="M138.841 31.2812V31.9678H136.139V27.4753H136.896V31.2812H138.841Z" fill="white"/>
<path d="M149.903 29.7217C149.903 31.0053 148.864 32.0001 147.523 32.0001C146.181 32.0001 145.141 31.0053 145.141 29.7217C145.141 28.4317 146.181 27.4562 147.523 27.4562C148.864 27.4562 149.903 28.4381 149.903 29.7217ZM145.911 29.7217C145.911 30.6138 146.65 31.3198 147.528 31.3198C148.408 31.3198 149.127 30.6138 149.127 29.7217C149.127 28.8296 148.408 28.1364 147.528 28.1364C146.643 28.1364 145.911 28.8296 145.911 29.7217Z" fill="white"/>
<path d="M160.214 29.7602V31.416C159.758 31.7625 159.084 32.0001 158.468 32.0001C157.14 32.0001 156.106 31.0053 156.106 29.7217C156.106 28.4381 157.152 27.4562 158.513 27.4562C159.155 27.4562 159.797 27.7 160.24 28.0851L159.81 28.6435C159.463 28.3225 158.982 28.1301 158.513 28.1301C157.595 28.1301 156.877 28.8296 156.877 29.7217C156.877 30.6202 157.602 31.3198 158.52 31.3198C158.853 31.3198 159.232 31.2042 159.553 31.0117V29.7602H160.214Z" fill="white"/>
<path d="M169.076 31.9678H168.325V30.4981L166.65 27.4753H167.414L168.698 29.6639L169.955 27.4753H170.725L169.076 30.4725V31.9678H169.076Z" fill="white"/>
<path d="M113.749 13.0533C113.723 12.7871 113.676 12.5209 113.587 12.2547C113.343 11.554 112.952 10.9999 112.381 10.56C111.778 10.1036 111.061 9.87545 110.263 9.87545H93.6727V5.96423C93.6727 5.19828 93.9336 4.56268 94.4715 4.02495C95.0095 3.48722 95.6612 3.22643 96.4106 3.22643H112.185C112.626 3.22643 113 3.06344 113.31 2.75384C113.62 2.44424 113.767 2.08568 113.767 1.64564C113.767 1.20561 113.62 0.830805 113.31 0.521207C113 0.211611 112.626 0.0486107 112.185 0.0486107H96.4106C94.7811 0.0486107 93.3794 0.618991 92.2221 1.77608C91.0656 2.93316 90.4951 4.33463 90.4951 5.96431V17.486C90.4951 19.1158 91.0818 20.501 92.2384 21.658C93.3956 22.815 94.7811 23.4016 96.4106 23.4016H112.185C112.626 23.4016 113 23.2386 113.31 22.9291C113.62 22.6194 113.766 22.2446 113.766 21.8047C113.766 21.3646 113.62 21.0061 113.31 20.6964C113 20.3869 112.626 20.2238 112.185 20.2238H96.4106C95.6612 20.2238 95.0088 19.9631 94.4715 19.4253C93.9336 18.8875 93.6727 18.2356 93.6727 17.486V13.0533H104.517H110.263L113.749 13.0533Z" fill="white"/>
<path d="M170.588 1.54544C170.11 0.895142 169.483 0.439867 168.708 0.195986C167.949 -0.0478944 167.207 -0.0641802 166.465 0.147211C165.74 0.374805 165.147 0.797504 164.668 1.41531C163.883 2.44116 162.807 3.81853 161.448 5.53604L161.454 5.53946C161.212 5.83961 160.974 6.13487 160.725 6.44439V7.71251C160.725 7.98883 160.823 8.21644 161.021 8.41158C161.219 8.60666 161.45 8.70423 161.73 8.70423H162.984C163.498 8.06819 163.99 7.45784 164.473 6.8594L164.465 6.85316C165.688 5.30144 166.581 4.14799 167.125 3.41497C167.274 3.21987 167.488 3.1548 167.735 3.23615C167.982 3.31741 168.114 3.48003 168.114 3.72391V17.4295C168.114 18.1773 167.851 18.8114 167.306 19.3479C166.762 19.8845 166.119 20.1445 165.361 20.1445H153.736C153.044 20.1445 152.466 19.9169 151.988 19.4455C151.477 18.9415 151.213 18.2749 151.213 17.4295V1.6267C151.213 1.18772 151.048 0.830074 150.735 0.521134C150.422 0.212191 150.059 0.049658 149.614 0.049658C149.169 0.049658 148.79 0.212272 148.476 0.521134C148.162 0.829996 148.014 1.18772 148.014 1.6267V17.4295C148.014 19.039 148.591 20.4209 149.746 21.5753C150.917 22.7296 152.318 23.2986 153.967 23.2986H165.361C166.993 23.2986 168.394 22.7296 169.565 21.5753C170.736 20.4209 171.313 19.039 171.313 17.4295V3.72399C171.313 2.92737 171.066 2.19573 170.588 1.54544Z" fill="white"/>
</svg>
