<svg width="33" height="33" viewBox="0 0 33 33" fill="none" xmlns="http://www.w3.org/2000/svg">
<path d="M27.5889 2.58203H6.25553C4.22887 2.58203 2.58887 4.22203 2.58887 6.2487V27.582C2.58887 29.6087 4.22887 31.2487 6.25553 31.2487H27.5889C29.6155 31.2487 31.2555 29.6087 31.2555 27.582V6.2487C31.2555 4.22203 29.6155 2.58203 27.5889 2.58203ZM4.58887 6.2487C4.58887 5.3287 5.33553 4.58203 6.25553 4.58203H27.5889C28.5089 4.58203 29.2555 5.3287 29.2555 6.2487V7.91536H4.58887V6.2487ZM29.2555 27.582C29.2555 28.502 28.5089 29.2487 27.5889 29.2487H6.25553C5.33553 29.2487 4.58887 28.502 4.58887 27.582V9.91536H29.2555V27.582ZM7.98887 20.2887C7.6022 19.902 7.6022 19.262 7.98887 18.8754L11.3222 15.542C11.7089 15.1554 12.3489 15.1554 12.7355 15.542C13.1222 15.9287 13.1222 16.5687 12.7355 16.9554L10.1089 19.582L12.7355 22.2087C13.1222 22.5954 13.1222 23.2354 12.7355 23.622C12.5355 23.822 12.2822 23.9154 12.0289 23.9154C11.7755 23.9154 11.5222 23.822 11.3222 23.622L7.98887 20.2887ZM21.0955 22.2087L23.7222 19.582L21.0955 16.9554C20.7089 16.5687 20.7089 15.9287 21.0955 15.542C21.4822 15.1554 22.1222 15.1554 22.5089 15.542L25.8422 18.8754C26.2289 19.262 26.2289 19.902 25.8422 20.2887L22.5089 23.622C22.3089 23.822 22.0555 23.9154 21.8022 23.9154C21.5489 23.9154 21.2955 23.822 21.0955 23.622C20.7089 23.2354 20.7089 22.5954 21.0955 22.2087ZM14.3222 24.622L17.5889 13.9554C17.7489 13.4354 18.3089 13.1287 18.8422 13.2887C19.3755 13.4487 19.6689 14.0087 19.5089 14.542L16.2422 25.2087C16.1089 25.6354 15.7089 25.9154 15.2822 25.9154C15.1889 25.9154 15.0822 25.902 14.9889 25.8754C14.4555 25.7154 14.1622 25.1554 14.3222 24.622Z" fill="black"/>
</svg>
