<svg width="30" height="33" viewBox="0 0 30 33" fill="none" xmlns="http://www.w3.org/2000/svg">
<path fill-rule="evenodd" clip-rule="evenodd" d="M21.4398 11.6616L18.1936 21.4047C17.9987 21.9881 18.3142 22.6207 18.8991 22.8157C19.4841 23.0107 20.1167 22.6951 20.3116 22.1102L23.5578 12.3671C23.7528 11.7836 23.4373 11.1511 22.8523 10.9561C22.2674 10.7611 21.6348 11.0767 21.4398 11.6616Z" fill="black"/>
<path fill-rule="evenodd" clip-rule="evenodd" d="M24.2809 14.4297L26.7383 16.8871L24.2809 19.3444C23.8448 19.7805 23.8448 20.4875 24.2809 20.9236C24.717 21.3597 25.424 21.3597 25.8601 20.9236L29.1063 17.6759C29.5424 17.2398 29.5424 16.5343 29.1063 16.0982L25.8601 12.8505C25.424 12.4144 24.717 12.4144 24.2809 12.8505C23.8448 13.2866 23.8448 13.9936 24.2809 14.4297Z" fill="black"/>
<path fill-rule="evenodd" clip-rule="evenodd" d="M15.8909 12.8505L12.6447 16.0982C12.2086 16.5343 12.2086 17.2398 12.6447 17.6759L15.8909 20.9236C16.327 21.3597 17.034 21.3597 17.4701 20.9236C17.9062 20.4875 17.9062 19.7805 17.4701 19.3444L15.0128 16.8871L17.4701 14.4297C17.9062 13.9936 17.9062 13.2866 17.4701 12.8505C17.034 12.4144 16.327 12.4144 15.8909 12.8505Z" fill="black"/>
<path fill-rule="evenodd" clip-rule="evenodd" d="M21.9922 8.70083C21.9922 8.70083 21.9922 6.76889 21.9922 4.97983C21.9922 3.89478 21.5606 2.8529 20.7941 2.08488C20.0261 1.31836 18.9842 0.886719 17.8991 0.886719H4.50351C3.41846 0.886719 2.37658 1.31836 1.60856 2.08488C0.842037 2.8529 0.4104 3.89478 0.4104 4.97983V28.7943C0.4104 29.8793 0.842037 30.9212 1.60856 31.6892C2.37658 32.4557 3.41846 32.8874 4.50351 32.8874H17.8991C18.9842 32.8874 20.0261 32.4557 20.7941 31.6892C21.5606 30.9212 21.9922 29.8793 21.9922 28.7943C21.9922 27.0052 21.9922 25.0733 21.9922 25.0733C21.9922 24.4571 21.4921 23.957 20.8759 23.957C20.2597 23.957 19.7596 24.4571 19.7596 25.0733V28.7943C19.7596 29.2884 19.5632 29.7602 19.2149 30.11C18.8651 30.4583 18.3933 30.6548 17.8991 30.6548C14.2615 30.6548 8.14116 30.6548 4.50351 30.6548C4.00936 30.6548 3.53753 30.4583 3.18776 30.11C2.83947 29.7602 2.643 29.2884 2.643 28.7943V4.97983C2.643 4.48568 2.83947 4.01385 3.18776 3.66408C3.53753 3.31579 4.00936 3.11932 4.50351 3.11932H17.8991C18.3933 3.11932 18.8651 3.31579 19.2149 3.66408C19.5632 4.01385 19.7596 4.48568 19.7596 4.97983V8.70083C19.7596 9.31703 20.2597 9.81713 20.8759 9.81713C21.4921 9.81713 21.9922 9.31703 21.9922 8.70083Z" fill="black"/>
<path fill-rule="evenodd" clip-rule="evenodd" d="M4.21165 2.41821L5.13743 4.73565C5.64647 6.00675 6.87886 6.84025 8.24819 6.84025H14.1542C15.5235 6.84025 16.7559 6.00675 17.2649 4.73565L18.1907 2.41821C18.4199 1.84518 18.1416 1.19474 17.5701 0.967019C16.997 0.737805 16.3466 1.01614 16.1189 1.58768L15.1916 3.90661C15.0219 4.32932 14.6111 4.60765 14.1542 4.60765H8.24819C7.79126 4.60765 7.38046 4.32932 7.21078 3.90661L6.2835 1.58768C6.05578 1.01614 5.40535 0.737805 4.83231 0.967019C4.26077 1.19474 3.98243 1.84518 4.21165 2.41821Z" fill="black"/>
<path fill-rule="evenodd" clip-rule="evenodd" d="M8.22433 29.1662H14.1779C14.7941 29.1662 15.2942 28.6661 15.2942 28.0499C15.2942 27.4337 14.7941 26.9336 14.1779 26.9336H8.22433C7.60814 26.9336 7.10803 27.4337 7.10803 28.0499C7.10803 28.6661 7.60814 29.1662 8.22433 29.1662Z" fill="black"/>
</svg>
