<svg width="26" height="29" viewBox="0 0 26 29" fill="none" xmlns="http://www.w3.org/2000/svg">
<path d="M19.897 5.88601L19.8496 6.38376L19.8497 6.38377L19.85 6.3838L19.8511 6.38391L19.8557 6.38434L19.8734 6.38602L19.9405 6.39239L20.1816 6.41508C20.3818 6.43386 20.6511 6.4589 20.9267 6.48396C21.2802 6.5161 21.6701 6.55081 21.9288 6.57034C21.9308 6.5856 21.933 6.60155 21.9353 6.61818C21.9574 6.77987 21.9898 7.01028 22.0309 7.29897C22.113 7.87661 22.2303 8.69043 22.3709 9.66085C22.6522 11.6018 23.0272 14.1709 23.4022 16.7334C23.7773 19.296 24.1523 21.8524 24.4335 23.768L24.7734 26.0818L24.8346 26.4982L16.7891 28.2757L1.45216 25.3819L1.47914 25.169L1.70705 23.3724C1.89611 21.8834 2.14921 19.8929 2.40544 17.8869C2.66168 15.8807 2.921 13.8593 3.12249 12.3082C3.22325 11.5326 3.30948 10.8752 3.3736 10.3963C3.40568 10.1568 3.43212 9.96267 3.45203 9.82112C3.462 9.75024 3.4702 9.69352 3.47656 9.65129C3.47975 9.63015 3.48235 9.61354 3.48438 9.60109C3.48659 9.58755 3.48747 9.58303 3.48727 9.58403L3.48998 9.57046L3.49195 9.55672L3.49498 9.53546C3.51982 9.36149 3.53457 9.25825 3.55354 9.179C3.56172 9.14483 3.56845 9.12579 3.57228 9.11646C3.58073 9.11103 3.59778 9.10141 3.62835 9.08842C3.70372 9.05641 3.82106 9.02038 4.01824 8.97109L4.03687 8.96643L4.05509 8.96036C4.29596 8.88007 4.52592 8.80118 4.74802 8.725C5.3782 8.50883 5.94509 8.31437 6.51824 8.17109L6.80593 8.09916L6.83582 7.98459L7.62853 7.7684L9.82853 7.1684L10.1221 7.08833L10.1443 6.98474L10.9299 6.76801L13.8299 5.96801L14.197 5.86676V5.73222L14.744 5.5639L16.044 5.1639L16.4622 5.03523L16.5007 5.14304L16.9827 4.95025C17.2274 4.85238 17.4224 4.77926 17.5553 4.73091C17.6187 4.70787 17.6679 4.69047 17.7017 4.67871C17.7037 4.67846 17.7055 4.67822 17.7072 4.678C17.7207 4.67626 17.741 4.67337 17.7564 4.67118C17.7633 4.6702 17.7693 4.66935 17.7731 4.66882C17.8122 4.66343 17.8382 4.66101 17.8595 4.66101C17.8614 4.66101 17.8633 4.66103 17.8649 4.66107L17.9008 4.69694L17.9511 4.72211C17.9576 4.72712 17.9748 4.74026 18.0056 4.76616C18.0579 4.81009 18.1269 4.87143 18.2091 4.94678C18.3728 5.09681 18.5752 5.28994 18.7741 5.48263C18.9724 5.67477 19.1648 5.8641 19.3079 6.00556C19.3793 6.07624 19.4383 6.13485 19.4794 6.17575L19.5269 6.22309L19.5393 6.23545L19.5424 6.23857L19.5432 6.23934L19.5434 6.23952L19.5434 6.23956L19.897 5.88601ZM19.897 5.88601L19.8496 6.38376L19.6706 6.36671L19.5434 6.23957L19.897 5.88601ZM13.624 2.28601H13.6699L13.8226 2.74413C13.9086 3.0019 13.9754 3.28489 14.0216 3.60557C13.9479 3.27678 13.8591 2.99129 13.7713 2.7279L13.624 2.28601ZM16.797 28.786L25.397 26.886L16.797 28.786ZM3.56528 9.1215C3.56524 9.12149 3.56567 9.12109 3.56668 9.12031C3.56582 9.12112 3.56531 9.12151 3.56528 9.1215ZM12.9206 1.6388C12.9063 1.63167 12.8925 1.62442 12.8785 1.61682C12.8961 1.62541 12.9136 1.63447 12.931 1.64403L12.9206 1.6388ZM12.659 2.65547C11.9887 3.05882 11.3326 3.72326 10.8147 4.80894C11.3458 3.63595 12.0171 2.99055 12.659 2.65547ZM12.2019 2.38618C12.2038 2.3868 12.2101 2.3891 12.2234 2.39573C12.2444 2.40625 12.267 2.4193 12.3122 2.44534L12.3127 2.44567C12.3541 2.46955 12.409 2.50103 12.4734 2.53323L12.697 2.08601L12.2019 2.38618Z" stroke="black"/>
<path d="M19.8969 5.8875L19.5433 6.24105L19.6705 6.3682L19.8495 6.38525L19.8969 5.8875ZM19.8969 5.8875L19.5433 6.24105L19.5433 6.24101L19.5431 6.24083L19.5423 6.24006L19.5392 6.23694L19.5268 6.22457L19.4793 6.17724C19.4382 6.13634 19.3792 6.07772 19.3078 6.00704C19.1647 5.86558 18.9723 5.67626 18.774 5.48412C18.6645 5.37806 18.554 5.27187 18.4494 5.1728L17.3282 28.1581L24.8345 26.4997L24.7733 26.0832L24.4334 23.7695C24.1522 21.8538 23.7772 19.2975 23.4021 16.7349C23.0271 14.1723 22.6521 11.6033 22.3708 9.66234C22.2302 8.69192 22.1129 7.8781 22.0308 7.30046C21.9897 7.01176 21.9573 6.78136 21.9352 6.61967C21.9332 6.60489 21.9312 6.59065 21.9294 6.57696C21.8531 6.57081 21.7605 6.56263 21.6667 6.55429C21.4547 6.53544 21.182 6.51037 20.9131 6.48535C20.644 6.46032 20.3781 6.4353 20.1795 6.41653L19.9401 6.39386L19.8732 6.3875L19.8555 6.38582L19.851 6.38539L19.8499 6.38529L19.8496 6.38526L19.8495 6.38525L19.8969 5.8875Z" stroke="#1F1F1F"/>
<path d="M13.8972 10.8859L12.7972 14.0859C12.7972 14.0859 11.8972 13.5859 10.6972 13.5859C8.99717 13.5859 8.89717 14.5859 8.89717 14.8859C8.89717 16.2859 12.6972 16.8859 12.6972 20.2859C12.6972 22.9859 10.9972 24.6859 8.69717 24.6859C5.99717 24.6859 4.59717 22.9859 4.59717 22.9859L5.29717 20.5859C5.29717 20.5859 6.69717 21.7859 7.89717 21.7859C8.69717 21.7859 8.99717 21.1859 8.99717 20.6859C8.99717 18.7859 5.89717 18.6859 5.89717 15.5859C5.89717 12.9859 7.79717 10.4859 11.4972 10.4859C13.1972 10.3859 13.8972 10.8859 13.8972 10.8859Z" fill="#1F1F1F"/>
</svg>
