<svg width="33" height="33" viewBox="0 0 33 33" fill="none" xmlns="http://www.w3.org/2000/svg">
<path d="M31.9224 32.8867H9.92236C9.65715 32.8867 9.40279 32.7814 9.21526 32.5938C9.02772 32.4063 8.92236 32.1519 8.92236 31.8867V14.8867C8.92236 14.6215 9.02772 14.3671 9.21526 14.1796C9.40279 13.9921 9.65715 13.8867 9.92236 13.8867H31.9224C32.1876 13.8867 32.4419 13.9921 32.6295 14.1796C32.817 14.3671 32.9224 14.6215 32.9224 14.8867V31.8867C32.9224 32.1519 32.817 32.4063 32.6295 32.5938C32.4419 32.7814 32.1876 32.8867 31.9224 32.8867ZM10.9224 30.8867H30.9224V15.8867H10.9224V30.8867Z" fill="#191919"/>
<path d="M9.92236 24.8867H4.92236C3.8615 24.8867 2.84408 24.4653 2.09394 23.7151C1.34379 22.965 0.922363 21.9476 0.922363 20.8867V4.88672C0.922363 3.82585 1.34379 2.80844 2.09394 2.05829C2.84408 1.30815 3.8615 0.886719 4.92236 0.886719L14.9224 0.886719C15.9832 0.886719 17.0006 1.30815 17.7508 2.05829C18.5009 2.80844 18.9224 3.82585 18.9224 4.88672V10.8867C18.9224 11.1519 18.817 11.4063 18.6295 11.5938C18.4419 11.7814 18.1876 11.8867 17.9224 11.8867C17.6571 11.8867 17.4028 11.7814 17.2153 11.5938C17.0277 11.4063 16.9224 11.1519 16.9224 10.8867V4.88672C16.9224 4.35629 16.7116 3.84758 16.3366 3.47251C15.9615 3.09743 15.4528 2.88672 14.9224 2.88672H4.92236C4.39193 2.88672 3.88322 3.09743 3.50815 3.47251C3.13308 3.84758 2.92236 4.35629 2.92236 4.88672V20.8867C2.92236 21.4172 3.13308 21.9259 3.50815 22.3009C3.88322 22.676 4.39193 22.8867 4.92236 22.8867H9.92236C10.1876 22.8867 10.4419 22.9921 10.6295 23.1796C10.817 23.3671 10.9224 23.6215 10.9224 23.8867C10.9224 24.1519 10.817 24.4063 10.6295 24.5938C10.4419 24.7814 10.1876 24.8867 9.92236 24.8867Z" fill="#191919"/>
<path d="M7.92236 11.8867C7.12671 11.8867 6.36365 11.5706 5.80104 11.008C5.23843 10.4454 4.92236 9.68237 4.92236 8.88672V5.88672C4.92236 5.6215 5.02772 5.36715 5.21526 5.17961C5.40279 4.99208 5.65715 4.88672 5.92236 4.88672C6.18758 4.88672 6.44193 4.99208 6.62947 5.17961C6.81701 5.36715 6.92236 5.6215 6.92236 5.88672V8.88672C6.92236 9.15194 7.02772 9.40629 7.21526 9.59383C7.40279 9.78136 7.65715 9.88672 7.92236 9.88672C8.18758 9.88672 8.44193 9.78136 8.62947 9.59383C8.81701 9.40629 8.92236 9.15194 8.92236 8.88672V5.88672C8.92236 5.6215 9.02772 5.36715 9.21526 5.17961C9.40279 4.99208 9.65715 4.88672 9.92236 4.88672C10.1876 4.88672 10.4419 4.99208 10.6295 5.17961C10.817 5.36715 10.9224 5.6215 10.9224 5.88672V8.88672C10.9224 9.68237 10.6063 10.4454 10.0437 11.008C9.48107 11.5706 8.71801 11.8867 7.92236 11.8867Z" fill="#191919"/>
<path d="M15.9224 24.8867C15.1267 24.8867 14.3637 24.5706 13.801 24.008C13.2384 23.4454 12.9224 22.6824 12.9224 21.8867V18.8867C12.9224 18.6215 13.0277 18.3671 13.2153 18.1796C13.4028 17.9921 13.6571 17.8867 13.9224 17.8867C14.1876 17.8867 14.4419 17.9921 14.6295 18.1796C14.817 18.3671 14.9224 18.6215 14.9224 18.8867V21.8867C14.9224 22.1519 15.0277 22.4063 15.2153 22.5938C15.4028 22.7814 15.6571 22.8867 15.9224 22.8867C16.1876 22.8867 16.4419 22.7814 16.6295 22.5938C16.817 22.4063 16.9224 22.1519 16.9224 21.8867V18.8867C16.9224 18.6215 17.0277 18.3671 17.2153 18.1796C17.4028 17.9921 17.6571 17.8867 17.9224 17.8867C18.1876 17.8867 18.4419 17.9921 18.6295 18.1796C18.817 18.3671 18.9224 18.6215 18.9224 18.8867V21.8867C18.9224 22.6824 18.6063 23.4454 18.0437 24.008C17.4811 24.5706 16.718 24.8867 15.9224 24.8867Z" fill="#191919"/>
<path d="M13.9224 11.8867C13.6571 11.8867 13.4028 11.7814 13.2153 11.5938C13.0277 11.4063 12.9224 11.1519 12.9224 10.8867V5.88672C12.9224 5.6215 13.0277 5.36715 13.2153 5.17961C13.4028 4.99208 13.6571 4.88672 13.9224 4.88672C14.1876 4.88672 14.4419 4.99208 14.6295 5.17961C14.817 5.36715 14.9224 5.6215 14.9224 5.88672V10.8867C14.9224 11.1519 14.817 11.4063 14.6295 11.5938C14.4419 11.7814 14.1876 11.8867 13.9224 11.8867Z" fill="#191919"/>
<path d="M24.9224 24.8867C24.7722 24.886 24.6241 24.8515 24.4891 24.7857C24.354 24.7199 24.2355 24.6246 24.1424 24.5067L20.1424 19.5067C20.0037 19.2981 19.9484 19.045 19.9874 18.7975C20.0264 18.55 20.1569 18.3262 20.353 18.1703C20.5491 18.0144 20.7966 17.9378 21.0465 17.9557C21.2964 17.9735 21.5305 18.0845 21.7024 18.2667L25.7024 23.2667C25.8187 23.4138 25.8912 23.5906 25.9118 23.7769C25.9324 23.9633 25.9002 24.1516 25.8188 24.3205C25.7375 24.4894 25.6103 24.6321 25.4518 24.7322C25.2933 24.8323 25.1099 24.8858 24.9224 24.8867Z" fill="#191919"/>
<path d="M20.9224 24.8867C20.7349 24.8859 20.5515 24.8323 20.393 24.7322C20.2345 24.6321 20.1073 24.4895 20.026 24.3206C19.9447 24.1517 19.9125 23.9633 19.933 23.777C19.9536 23.5906 20.0262 23.4138 20.1424 23.2667L24.1424 18.2667C24.2191 18.1514 24.3188 18.0533 24.4354 17.9785C24.552 17.9038 24.6828 17.854 24.8196 17.8325C24.9564 17.8109 25.0961 17.818 25.23 17.8533C25.3639 17.8886 25.4891 17.9513 25.5975 18.0375C25.7059 18.1237 25.7952 18.2314 25.8598 18.3539C25.9244 18.4764 25.9628 18.6109 25.9727 18.7491C25.9825 18.8872 25.9636 19.0258 25.9171 19.1563C25.8706 19.2867 25.7975 19.406 25.7024 19.5067L21.7024 24.5067C21.6093 24.6246 21.4908 24.72 21.3558 24.7857C21.2207 24.8515 21.0726 24.886 20.9224 24.8867Z" fill="#191919"/>
<path d="M15.9224 28.8867H13.9224C13.6571 28.8867 13.4028 28.7814 13.2153 28.5938C13.0277 28.4063 12.9224 28.1519 12.9224 27.8867C12.9224 27.6215 13.0277 27.3671 13.2153 27.1796C13.4028 26.9921 13.6571 26.8867 13.9224 26.8867H15.9224C16.1876 26.8867 16.4419 26.9921 16.6295 27.1796C16.817 27.3671 16.9224 27.6215 16.9224 27.8867C16.9224 28.1519 16.817 28.4063 16.6295 28.5938C16.4419 28.7814 16.1876 28.8867 15.9224 28.8867Z" fill="#191919"/>
<path d="M27.9224 28.8867H19.9224C19.6571 28.8867 19.4028 28.7814 19.2153 28.5938C19.0277 28.4063 18.9224 28.1519 18.9224 27.8867C18.9224 27.6215 19.0277 27.3671 19.2153 27.1796C19.4028 26.9921 19.6571 26.8867 19.9224 26.8867H27.9224C28.1876 26.8867 28.4419 26.9921 28.6295 27.1796C28.817 27.3671 28.9224 27.6215 28.9224 27.8867C28.9224 28.1519 28.817 28.4063 28.6295 28.5938C28.4419 28.7814 28.1876 28.8867 27.9224 28.8867Z" fill="#191919"/>
</svg>
