<svg width="33" height="33" viewBox="0 0 33 33" fill="none" xmlns="http://www.w3.org/2000/svg">
<g clip-path="url(#clip0_981_5347)">
<path d="M22.4322 32.8867H10.4379C8.78194 32.8253 8.78319 30.4488 10.4379 30.3879H22.4322C24.0882 30.4493 24.087 32.8259 22.4322 32.8867ZM24.9311 27.8891H7.93777C3.80491 27.8891 0.442627 24.5268 0.442627 20.394V10.1476C0.442627 6.01401 3.80554 2.6511 7.93908 2.6511H9.68826C11.3442 2.71251 11.343 5.08907 9.68826 5.14992H7.93908C5.18339 5.14992 2.94145 7.39186 2.94145 10.1476V20.394C2.94145 23.149 5.18282 25.3903 7.93777 25.3903H24.9311C27.6868 25.3903 29.9287 23.1483 29.9287 20.3927V10.1475C29.9287 7.3918 27.6868 5.14986 24.9311 5.14986H23.3068C21.6509 5.08845 21.6521 2.71188 23.3068 2.65104H24.9311C29.0646 2.65104 32.4275 6.01395 32.4275 10.1475V20.3927C32.4275 24.5262 29.0646 27.8891 24.9311 27.8891ZM16.56 12.2715C15.6989 12.2715 14.9982 11.5709 14.9982 10.7097C15.0768 8.64071 18.0436 8.64127 18.1218 10.7097C18.1218 11.5709 17.4212 12.2715 16.56 12.2715ZM21.3702 21.6421V15.8115C22.965 13.8699 23.7842 11.8234 23.8065 9.72213C23.8111 9.28996 23.592 8.88609 23.2273 8.65426C20.8536 7.14597 18.8871 4.71912 17.5405 1.63602C17.3385 1.17361 16.8765 0.879061 16.3738 0.88687C15.8694 0.895616 15.4197 1.20691 15.2339 1.676C13.8016 5.29198 12.071 7.56515 9.94314 8.62565C9.46605 8.86347 9.1923 9.37767 9.26165 9.90617C9.61517 12.6047 10.6336 14.1682 11.7498 15.7342V21.642C11.8113 23.298 14.1878 23.2967 14.2487 21.642V16.5822L15.6858 16.5819C17.3417 16.52 17.34 14.1436 15.6852 14.0831L13.6438 14.0836C12.7621 12.8279 12.1867 11.8545 11.8779 10.4002C13.8219 9.19032 15.3652 7.18115 16.4671 5.01667C17.7658 7.20601 19.3917 9.01484 21.2637 10.3442C21.0876 11.7481 20.3893 13.1526 19.1818 14.5285C18.9817 14.7564 18.8714 15.0494 18.8714 15.3526V21.6419C18.8714 22.332 19.4308 22.8913 20.1208 22.8913C20.8109 22.8913 21.3702 22.3321 21.3702 21.6421Z" fill="black"/>
</g>
<defs>
<clipPath id="clip0_981_5347">
<rect width="32" height="32" fill="white" transform="translate(0.435059 0.886719)"/>
</clipPath>
</defs>
</svg>
