<svg width="33" height="33" viewBox="0 0 33 33" fill="none" xmlns="http://www.w3.org/2000/svg">
<g clip-path="url(#clip0_981_5359)">
<path d="M2.70956 16.8867C2.70956 22.3199 5.8669 27.0152 10.4455 29.2402L3.89796 11.3006C3.11306 13.0583 2.7081 14.9618 2.70956 16.8867ZM25.702 16.194C25.702 14.4978 25.0926 13.3229 24.5701 12.4086C23.8742 11.2779 23.2221 10.3204 23.2221 9.18978C23.2221 7.92797 24.1791 6.75339 25.5271 6.75339C25.5879 6.75339 25.6455 6.76091 25.7049 6.76443C23.2628 4.52706 20.0093 3.1611 16.4358 3.1611C11.6405 3.1611 7.4216 5.62146 4.96726 9.34802C5.28927 9.35768 5.5927 9.36433 5.85058 9.36433C7.28619 9.36433 9.50862 9.19028 9.50862 9.19028C10.2486 9.14661 10.3359 10.2334 9.59672 10.3209C9.59672 10.3209 8.85306 10.4084 8.02558 10.4517L13.0244 25.3197L16.0282 16.3107L13.8896 10.4513C13.1505 10.408 12.4502 10.3206 12.4502 10.3206C11.7106 10.2772 11.7973 9.14623 12.537 9.1899C12.537 9.1899 14.8038 9.36408 16.1525 9.36408C17.5881 9.36408 19.8106 9.1899 19.8106 9.1899C20.551 9.14623 20.6381 10.233 19.8987 10.3206C19.8987 10.3206 19.1535 10.408 18.3276 10.4513L23.2881 25.2066L24.6572 20.6315C25.2505 18.7329 25.7021 17.3694 25.7021 16.1941L25.702 16.194ZM16.6766 18.0874L12.5583 30.0545C13.8174 30.4254 15.1232 30.6137 16.4358 30.6137C18.0342 30.6137 19.567 30.3374 20.994 29.8357C20.9559 29.7756 20.9232 29.7124 20.8962 29.6466L16.6766 18.0874ZM28.48 10.3014C28.539 10.7386 28.5725 11.2079 28.5725 11.7128C28.5725 13.1057 28.3123 14.6714 27.5288 16.6292L23.336 28.7516C27.4167 26.3719 30.1614 21.9509 30.1614 16.8871C30.1617 14.5006 29.5522 12.2565 28.48 10.3014ZM16.4358 0.886719C7.61322 0.886719 0.435181 8.06426 0.435181 16.8867C0.435181 25.7103 7.61322 32.8876 16.4358 32.8876C25.258 32.8876 32.4371 25.7103 32.4371 16.8867C32.4369 8.06426 25.258 0.886719 16.4358 0.886719ZM16.4358 32.1542C8.01792 32.1542 1.1688 25.3052 1.1688 16.8867C1.1688 8.46884 8.01755 1.62033 16.4358 1.62033C24.8534 1.62033 31.7019 8.46884 31.7019 16.8867C31.7019 25.3052 24.8534 32.1542 16.4358 32.1542Z" fill="black"/>
</g>
<defs>
<clipPath id="clip0_981_5359">
<rect width="32.1285" height="32" fill="white" transform="translate(0.435181 0.886719)"/>
</clipPath>
</defs>
</svg>
