<svg width="178" height="23" viewBox="0 0 178 23" fill="none" xmlns="http://www.w3.org/2000/svg">
<path d="M6.48689 10.2859C6.4223 10.2014 6.33699 10.1349 6.23921 10.093C6.14144 10.0511 6.0345 10.0351 5.92874 10.0466C5.82297 10.0581 5.72196 10.0967 5.63547 10.1586C5.54898 10.2205 5.47993 10.3037 5.43499 10.4002L0.104843 21.0571C0.0562863 21.1543 0.0333602 21.2622 0.0382419 21.3707C0.0431235 21.4791 0.0756507 21.5846 0.132735 21.6769C0.18982 21.7693 0.269567 21.8456 0.364405 21.8984C0.459243 21.9513 0.566024 21.9791 0.67461 21.9791H8.09657C8.21544 21.9819 8.33256 21.95 8.4337 21.8875C8.53484 21.825 8.61566 21.7345 8.66634 21.6269C10.2673 18.3186 9.29708 13.2883 6.48689 10.2859Z" fill="#191919"/>
<path d="M10.397 0.591877C9.06883 2.63543 8.29486 4.98918 8.15098 7.42215C8.00711 9.85511 8.49828 12.2837 9.57629 14.4695L13.1545 21.6259C13.2074 21.7317 13.2887 21.8207 13.3894 21.8829C13.49 21.9452 13.606 21.9781 13.7243 21.9781H21.1449C21.2535 21.9781 21.3603 21.9503 21.4551 21.8975C21.5499 21.8446 21.6297 21.7683 21.6868 21.676C21.7438 21.5836 21.7764 21.4782 21.7813 21.3697C21.7861 21.2612 21.7632 21.1533 21.7147 21.0562C21.7147 21.0562 11.7314 1.08734 11.4805 0.587879C11.4309 0.486212 11.3536 0.400587 11.2576 0.340826C11.1615 0.281064 11.0506 0.249587 10.9375 0.250004C10.8244 0.250422 10.7136 0.282717 10.618 0.343186C10.5224 0.403654 10.4458 0.489847 10.397 0.591877Z" fill="#191919"/>
<path d="M97.4366 9.13555C97.4366 11.7745 98.6608 13.8696 103.449 14.7946C106.306 15.3943 106.904 15.8555 106.904 16.8077C106.904 17.7327 106.305 18.3315 104.292 18.3315C101.861 18.2877 99.4772 17.6428 97.355 16.4542V20.7525C98.7971 21.4598 100.701 22.2488 104.238 22.2488C109.244 22.2488 111.23 20.0164 111.23 16.6988L97.4366 9.13555ZM111.23 16.6988C111.23 13.5701 109.571 12.1007 104.891 11.0944C102.307 10.523 101.681 9.95189 101.681 9.13555C101.681 8.10264 102.606 7.66649 104.32 7.66649C106.388 7.66649 108.428 8.29223 110.36 9.16288V5.05456C108.508 4.21156 106.49 3.7933 104.456 3.83039C99.8306 3.83039 97.4366 5.84357 97.4366 9.13555" fill="#191919"/>
<path d="M161.75 4.10156V21.9762H165.558V8.34582L167.164 11.964L172.55 21.9762H177.339V4.10156H173.53V15.6372L172.088 12.2905L167.762 4.10156H161.75Z" fill="#191919"/>
<path d="M137.524 4.10156H133.362V21.9762H137.524V4.10156Z" fill="#191919"/>
<path d="M128.559 16.6988C128.559 13.5701 126.9 12.1007 122.22 11.0944C119.636 10.523 119.01 9.95189 119.01 9.13555C119.01 8.10264 119.935 7.66649 121.649 7.66649C123.717 7.66649 125.757 8.29223 127.689 9.16288V5.05456C125.837 4.21156 123.819 3.7933 121.785 3.83039C117.16 3.83039 114.766 5.84357 114.766 9.13555C114.766 11.7745 115.99 13.8696 120.778 14.7946C123.635 15.3943 124.233 15.8555 124.233 16.8077C124.233 17.7327 123.634 18.3315 121.622 18.3315C119.19 18.2877 116.806 17.6428 114.684 16.4542V20.7525C116.126 21.4598 118.03 22.2488 121.567 22.2488C126.573 22.2488 128.559 20.0164 128.559 16.6988Z" fill="#191919"/>
<path d="M65.1001 4.10156V21.9762H73.6559L75.003 18.1128H69.2897V4.10156H65.1001Z" fill="#191919"/>
<path d="M48.1968 4.10156V7.96465H52.8219V21.9762H57.0115V7.96465H61.9631V4.10156H48.1968Z" fill="#191919"/>
<path d="M42.1208 4.10156H36.6301L30.397 21.9762H35.157L36.0407 18.9658C38.2169 19.6048 40.531 19.6048 42.7073 18.9658L43.5909 21.9762H48.352L42.1208 4.10156ZM39.3753 15.7425C38.5999 15.7424 37.8285 15.6314 37.0846 15.4129L39.3753 7.61246L41.666 15.4156C40.9219 15.6332 40.1506 15.7433 39.3753 15.7425Z" fill="#191919"/>
<path d="M88.4057 4.10156H82.9152L76.6821 21.9762H81.4432L82.3268 18.9658C84.5031 19.6048 86.8172 19.6048 88.9934 18.9658L89.8771 21.9762H94.6381L88.4057 4.10156ZM85.6604 15.7425C84.8851 15.7424 84.1137 15.6314 83.3697 15.4129L85.6604 7.61246L87.9512 15.4156C87.2071 15.6332 86.4357 15.7433 85.6604 15.7425Z" fill="#191919"/>
<path d="M152.525 4.10156H147.034L140.801 21.9762H145.562L146.446 18.9658C148.622 19.6048 150.936 19.6048 153.113 18.9658L153.996 21.9762H158.758L152.525 4.10156ZM149.778 15.7425C149.003 15.7424 148.231 15.6314 147.487 15.4129L149.778 7.61246L152.069 15.4156C151.325 15.6332 150.553 15.7433 149.778 15.7425Z" fill="#191919"/>
</svg>
