<svg width="135" height="25" viewBox="0 0 135 25" fill="none" xmlns="http://www.w3.org/2000/svg">
<path d="M27.5232 6.95035C22.6425 6.95035 18.8289 10.6554 18.8289 15.6154C18.8289 20.5754 22.5461 24.2488 27.5232 24.2488C32.5003 24.2488 36.2822 20.512 36.2822 15.5837C36.2822 10.6871 32.565 6.95035 27.5232 6.95035ZM27.5562 20.6742C24.7767 20.6742 22.74 18.5156 22.74 15.6166C22.74 12.6848 24.7438 10.5274 27.5232 10.5274C30.3356 10.5274 32.3711 12.7177 32.3711 15.6166C32.3711 18.5156 30.3356 20.6742 27.5562 20.6742ZM37.3481 10.72H39.7725V23.928H43.6507V7.27233H37.3481V10.72ZM9.06864 10.5261C11.1053 10.5261 12.7212 11.7823 13.3347 13.6507H17.4398C16.6959 9.65658 13.3994 6.95035 9.10156 6.95035C4.22083 6.95035 0.407227 10.6554 0.407227 15.6166C0.407227 20.5779 4.12449 24.25 9.10156 24.25C13.303 24.25 16.6641 21.5438 17.4081 17.5167H13.3347C12.753 19.3851 11.137 20.6742 9.10036 20.6742C6.28801 20.6742 4.31716 18.5156 4.31716 15.6166C4.3184 12.6848 6.25752 10.5261 9.06864 10.5261ZM111.037 14.0056L108.193 13.5873C106.836 13.3946 105.866 12.9433 105.866 11.8799C105.866 10.72 107.127 10.1407 108.84 10.1407C110.714 10.1407 111.91 10.9457 112.169 12.2665H115.918C115.497 8.91629 112.912 6.95155 108.937 6.95155C104.832 6.95155 102.117 9.04559 102.117 12.0091C102.117 14.8434 103.895 16.4874 107.482 17.0021L110.326 17.4204C111.717 17.6131 112.492 18.1619 112.492 19.1924C112.492 20.5132 111.135 21.0608 109.26 21.0608C106.965 21.0608 105.672 20.1266 105.478 18.7095H101.665C102.021 21.9633 104.574 24.25 109.227 24.25C113.462 24.25 116.273 22.317 116.273 18.9985C116.273 16.0349 114.237 14.4885 111.037 14.0056ZM41.7116 0.410984C40.2896 0.410984 39.2227 1.44152 39.2227 2.85867C39.2227 4.27581 40.2885 5.30635 41.7116 5.30635C43.1336 5.30635 44.2008 4.27581 44.2008 2.85867C44.2008 1.44152 43.1336 0.410984 41.7116 0.410984ZM98.6268 12.975C98.6268 9.36753 96.4293 6.95155 91.7752 6.95155C87.3798 6.95155 84.9236 9.17485 84.4383 12.5896H88.2847C88.4786 11.2689 89.5128 10.1737 91.7107 10.1737C93.6828 10.1737 94.6522 11.0432 94.6522 12.1067C94.6522 13.4922 92.874 13.8458 90.6765 14.0715C87.7031 14.3934 84.0187 15.4239 84.0187 19.29C84.0187 22.2865 86.2492 24.2183 89.8046 24.2183C92.5837 24.2183 94.329 23.0585 95.2023 21.2218C95.3317 22.8646 96.5598 23.928 98.2732 23.928H100.536V20.4815H98.628V12.975H98.6268ZM94.8131 17.1631C94.8131 19.3863 92.874 21.0291 90.5141 21.0291C89.0595 21.0291 87.8313 20.4169 87.8313 19.129C87.8313 17.4862 89.8031 17.035 91.6132 16.8423C93.3585 16.6813 94.3278 16.2947 94.8131 15.5532V17.1631ZM74.2256 6.95035C72.0596 6.95035 70.2498 7.85283 68.9572 9.36633V0.25H65.079V23.928H68.8923V21.7377C70.185 23.3158 72.0281 24.25 74.2256 24.25C78.8793 24.25 82.4028 20.5779 82.4028 15.6166C82.4028 10.6554 78.8148 6.95035 74.2256 6.95035ZM73.644 20.6742C70.8645 20.6742 68.8278 18.5156 68.8278 15.6166C68.8278 12.7177 70.8963 10.5274 73.6755 10.5274C76.488 10.5274 78.4586 12.686 78.4586 15.6166C78.4586 18.5156 76.4231 20.6742 73.644 20.6742ZM55.8026 6.95035C53.2818 6.95035 51.633 7.98089 50.6636 9.43094V7.27233H46.8168V23.9268H50.6951V14.8752C50.6951 12.3299 52.311 10.5261 54.7027 10.5261C56.9332 10.5261 58.3222 12.1043 58.3222 14.3922V23.928H62.2005V14.1031C62.202 9.9139 60.0371 6.95035 55.8026 6.95035ZM134.76 15.0691C134.76 10.3017 131.27 6.95155 126.583 6.95155C121.606 6.95155 117.954 10.6883 117.954 15.6166C117.954 20.8035 121.864 24.25 126.648 24.25C130.688 24.25 133.855 21.8657 134.663 18.4839H130.622C130.041 19.9656 128.619 20.8035 126.711 20.8035C124.222 20.8035 122.347 19.2571 121.928 16.5508H134.759V15.0691H134.76ZM122.155 13.78C122.77 11.4603 124.515 10.3335 126.519 10.3335C128.716 10.3335 130.397 11.5896 130.785 13.78H122.155Z" fill="#191919"/>
</svg>
