<svg width="87" height="29" viewBox="0 0 87 29" fill="none" xmlns="http://www.w3.org/2000/svg">
<path d="M0.250854 0.25H18.9175V9.58333H9.58419L0.250854 0.25ZM0.250854 9.58333H9.58419L18.9175 18.9167H0.250854V9.58333ZM0.250854 18.9167H9.58419V28.25L0.250854 18.9167Z" fill="#191919"/>
<path d="M29.4499 7.61309H36.9953V10.0108H32.3058V13.3428H36.9953V15.6876H32.3058V19.9539H29.4499V7.61309ZM38.5466 11.4563H41.2441V13.2369C41.385 12.625 41.6733 12.1553 42.108 11.8265C42.5538 11.4853 43.0487 11.3153 43.5889 11.3153C43.8711 11.3153 44.1064 11.3392 44.2939 11.3858V13.8894C44.0249 13.8569 43.7541 13.8394 43.483 13.8365C42.7425 13.8365 42.1848 14.0769 41.8082 14.559C41.4329 15.0291 41.2441 15.7341 41.2441 16.6748V19.9539H38.5479V11.4563H38.5466ZM48.5521 20.1832C47.7297 20.1832 47.0123 19.9889 46.4012 19.6012C45.8017 19.2135 45.3251 18.663 45.0262 18.0144C44.7089 17.3333 44.5492 16.5625 44.5492 15.7051C44.5492 14.8587 44.7149 14.0944 45.0437 13.4133C45.352 12.7552 45.8414 12.1988 46.4542 11.809C47.0763 11.4212 47.7877 11.2269 48.5875 11.2269C49.1866 11.2269 49.7221 11.3568 50.1919 11.6151C50.6616 11.8743 51.0143 12.227 51.2496 12.6728V11.4563H53.9291V19.9539H51.2496V18.7548C51.0143 19.178 50.65 19.5243 50.1564 19.7951C49.6628 20.0568 49.1111 20.1901 48.5521 20.1832ZM49.328 17.9439C49.9741 17.9439 50.4737 17.7326 50.8264 17.3094C51.1791 16.8862 51.3555 16.3512 51.3555 15.7051C51.3555 15.0705 51.1791 14.5415 50.8264 14.1183C50.4737 13.6951 49.9741 13.4837 49.328 13.4837C48.7161 13.4837 48.2233 13.6891 47.8471 14.1008C47.4828 14.5124 47.3005 15.0466 47.3005 15.7051C47.3005 16.3635 47.4828 16.9037 47.8471 17.3269C48.2233 17.7385 48.7169 17.9439 49.328 17.9439ZM55.8157 11.4563H58.5131V12.6903C58.7019 12.2548 59.0068 11.9021 59.4295 11.6326C59.8651 11.3632 60.3702 11.2269 60.9459 11.2269C62.2858 11.2269 63.1736 11.7496 63.6079 12.7962C63.847 12.3218 64.2211 11.9294 64.6836 11.6681C65.178 11.3704 65.746 11.218 66.3229 11.2269C68.3329 11.2269 69.3376 12.3782 69.3376 14.6824V19.9539H66.6226V15.176C66.6226 14.6008 66.5167 14.1776 66.3054 13.9069C66.0936 13.637 65.7763 13.5012 65.3531 13.5012C64.8949 13.5012 64.5422 13.6601 64.2954 13.9774C64.0486 14.2831 63.9252 14.8173 63.9252 15.5817V19.9539H61.2102V15.1585C61.2102 14.5829 61.1047 14.1653 60.8929 13.9069C60.6939 13.637 60.3818 13.5012 59.9595 13.5012C59.4889 13.5012 59.1302 13.6601 58.8834 13.9774C58.6366 14.2831 58.5131 14.8173 58.5131 15.5817V19.9539H55.8165V11.4563H55.8157ZM79.4708 15.2644C79.4708 15.6282 79.4468 16.0224 79.399 16.4455H73.124C73.1479 16.9981 73.3354 17.4204 73.6881 17.7151C74.0408 18.0084 74.5178 18.1557 75.116 18.1557C75.9509 18.1557 76.4799 17.9025 76.7028 17.3974H79.3474C79.2175 18.2322 78.7594 18.9073 77.9719 19.4248C77.1965 19.93 76.2442 20.1832 75.116 20.1832C73.659 20.1832 72.5129 19.7891 71.6781 19.0017C70.8557 18.2138 70.444 17.1155 70.444 15.7051C70.444 14.7883 70.6319 13.9949 71.0081 13.3249C71.3715 12.6557 71.9318 12.1143 72.6124 11.7735C73.3063 11.4097 74.1113 11.2269 75.0289 11.2269C75.8979 11.2269 76.6674 11.3973 77.3374 11.7385C78.0189 12.0797 78.5424 12.5554 78.9062 13.1665C79.2829 13.7784 79.4708 14.4774 79.4708 15.2644ZM76.8074 14.7708C76.7959 14.2067 76.6375 13.7771 76.3313 13.4837C76.0264 13.1904 75.5849 13.0431 75.0093 13.0431C74.4337 13.0431 73.9755 13.2015 73.6343 13.5192C73.3055 13.8249 73.1351 14.2417 73.1227 14.7708H76.8074ZM80.66 11.4563H83.3575V13.2369C83.4984 12.625 83.7866 12.1553 84.2213 11.8265C84.6432 11.4943 85.165 11.3141 85.7022 11.3153C85.9841 11.3153 86.2198 11.3392 86.4072 11.3858V13.8894C86.1382 13.8569 85.8675 13.8394 85.5963 13.8365C84.8559 13.8365 84.2982 14.0769 83.9216 14.559C83.5449 15.0291 83.3575 15.7341 83.3575 16.6748V19.9539H80.66V11.4563Z" fill="#191919"/>
</svg>
