<svg width="145" height="23" viewBox="0 0 145 23" fill="none" xmlns="http://www.w3.org/2000/svg">
<path d="M11.1696 0.490684C17.1385 0.490684 22.0003 5.3525 22.0003 11.3696C22.0003 17.3867 17.1385 22.2485 11.1696 22.2485C5.20062 22.2485 0.338806 17.4348 0.338806 11.3696C0.338806 5.30436 5.20062 0.490684 11.1696 0.490684ZM96.0828 0.25V19.3122C96.0828 20.7563 96.6605 21.1414 97.7676 21.4302L97.8157 21.6709H91.7024V19.3122C90.9803 21.0451 89.4881 22.1041 87.5626 22.1041C84.2893 22.1041 82.1232 19.1196 82.1232 14.691C82.1232 12.1879 82.8452 10.0699 84.193 8.48139C85.4927 6.94101 87.2738 6.12268 89.2474 6.12268C90.2101 6.12268 91.0285 6.31523 91.7024 6.74846V4.14908C91.7024 3.57144 91.558 3.18634 91.2691 2.89752C90.8841 2.56056 90.2583 2.41615 89.2955 2.51243H89.2474V2.27174L96.0828 0.25ZM119.285 6.17082V19.3122C119.285 20.7563 119.862 21.1414 120.97 21.4302V21.6709H114.856V19.264C114.134 20.9969 112.546 22.1041 110.765 22.1041C108.647 22.1041 107.299 21.1413 106.769 19.264L106.673 18.7826C106.577 18.3013 106.528 17.8199 106.528 17.3385V10.3106C106.528 8.77021 106.192 8.28884 104.844 8.19256H104.796V7.95188L110.909 6.17082V17.2423C110.909 18.8789 111.631 19.7935 112.979 19.7935C113.797 19.7935 114.471 19.3603 114.856 18.6382V10.3106C114.856 8.72207 114.567 8.2407 113.46 8.14443H113.412V7.90374L119.285 6.17082ZM75.1433 6.12268C76.78 6.12268 78.3685 6.70033 79.4275 7.7112C80.6309 8.86648 81.2567 10.5513 81.3048 12.7656V12.8137H72.1107C71.9182 15.9907 73.8918 18.5901 76.4912 18.6864C78.3685 18.8308 80.0051 17.6755 80.9197 15.7982L81.1604 15.8944C80.6309 19.4084 78.561 22.0559 74.9508 22.0559C70.8592 22.0559 68.5486 18.6382 68.4523 14.3541V13.2469C68.6449 11.3696 69.2225 9.6848 70.2334 8.43325C70.8592 7.66306 71.5812 7.08542 72.4477 6.70033C73.1697 6.31523 74.2287 6.12268 75.0952 6.12268H75.1433ZM138.828 6.17082C141.428 6.17082 143.016 7.80747 143.016 10.5994V19.5528C143.016 20.6118 143.498 21.1414 144.701 21.4302H144.749V21.6709H138.588V10.7438C138.588 9.01089 137.962 8.14443 136.662 8.14443C135.603 8.14443 135.074 8.91462 134.785 9.58853C134.833 9.92549 134.881 10.2624 134.881 10.5994V19.6972C134.881 20.8044 135.218 21.1895 136.181 21.4302H136.229V21.6709H130.501V10.7438C130.501 9.01089 129.827 8.14443 128.575 8.14443C127.564 8.14443 127.035 8.86648 126.794 9.44412V19.7454C126.794 20.8525 127.131 21.2376 128.094 21.4783H128.142V21.719H122.414V10.2624C122.414 8.72207 122.029 8.2407 120.729 8.14443H120.681V7.90374L126.794 6.21896V8.77021C127.42 7.13356 128.864 6.17082 130.693 6.17082C132.763 6.17082 134.207 7.18169 134.688 9.01089C135.314 7.27797 136.903 6.17082 138.828 6.17082ZM51.0268 1.21274L56.7551 14.6429L62.4834 1.21274H68.6449L68.5967 1.45342L68.5268 1.46899C67.4653 1.71093 66.9119 2.10787 66.9119 3.42703V19.7935C67.0082 20.8525 67.5859 21.1895 68.5967 21.4302H68.6449V21.6709H60.7986V21.4302H60.8467C61.8576 21.1895 62.4352 20.8525 62.5315 19.7935V3.86026L54.974 21.6227H54.5408L47.1759 4.34162V19.4084C47.1759 20.7563 47.7535 21.1414 48.8607 21.382H48.9088V21.6227H44.3839V21.382H44.4321C45.5392 21.1414 46.1169 20.7563 46.1169 19.4084V3.42703C46.1169 2.0792 45.5392 1.6941 44.4321 1.45342H44.3839V1.21274H51.0268ZM103.544 6.17082V19.3122L103.545 19.401C103.568 20.7723 104.145 21.1474 105.229 21.4302L105.277 21.6709H99.1636V10.3106C99.1636 8.77021 98.8266 8.28884 97.4788 8.19256H97.4307V7.95188L103.544 6.17082ZM28.4988 1.11646C31.4352 1.11646 33.8901 5.73759 33.8901 11.3696C33.8901 17.0497 31.4833 21.6227 28.4988 21.6227C25.5143 21.6227 23.1075 17.0497 23.1075 11.3696C23.1075 5.68945 25.5143 1.11646 28.4988 1.11646ZM36.7783 2.17547C37.8855 2.17547 38.7038 6.31523 38.7038 11.3696C38.7038 16.424 37.8373 20.5637 36.7783 20.5637C35.7299 20.5637 34.8702 16.5063 34.8531 11.5209L34.8529 11.3696C34.8529 6.31523 35.7193 2.17547 36.7783 2.17547ZM89.9695 6.98915C88.044 6.98915 86.8406 9.54039 86.8406 13.4876C86.8406 15.3649 87.1775 17.0016 87.7552 18.1087C88.2847 19.1677 89.0548 19.7454 89.9213 19.7454C90.7878 19.7454 91.4136 19.3603 91.7024 18.6382V8.04815C91.3654 7.37424 90.7396 6.98915 89.9695 6.98915ZM75.0952 7.03728C73.3623 7.03728 72.3514 9.10716 72.207 11.9954V12.0435H77.4539C77.5502 9.78108 77.1651 8.28884 76.443 7.56679C76.0579 7.22983 75.6247 7.03728 75.0952 7.03728ZM101.185 0.39441C102.581 0.39441 103.64 1.45342 103.64 2.84938C103.64 4.24535 102.581 5.30436 101.185 5.30436C99.7894 5.30436 98.7303 4.24535 98.7303 2.84938C98.7303 1.45342 99.7894 0.39441 101.185 0.39441Z" fill="#191919"/>
</svg>
