<svg width="107" height="26" viewBox="0 0 107 26" fill="none" xmlns="http://www.w3.org/2000/svg">
<path d="M7.10751 10.8343C11.8774 9.19026 12.6893 4.9075 12.0804 0.969807C12.0804 0.827725 12.2022 0.726238 12.324 0.766833C16.8909 2.99955 22.0261 7.87092 22.0261 15.178C22.0261 20.7801 17.6825 25.7326 11.37 25.7326C9.11749 25.8351 6.89504 25.1844 5.0534 23.8835C3.21176 22.5825 1.85581 20.7053 1.19958 18.5481C0.543343 16.3909 0.62419 14.0766 1.42936 11.9704C2.23453 9.86427 3.71816 8.08623 5.6461 6.91695C5.76788 6.83576 5.93026 6.91695 5.93026 7.05903C5.99116 7.81003 6.19413 9.69769 7.02632 10.8343H7.10751Z" fill="#191919"/>
<path d="M35.4635 21.2865L35.8085 20.8805L36.8843 24.2905L36.7422 24.4326C35.9303 25.1836 34.7125 25.5692 33.1496 25.5692H33.0887C31.6678 25.5692 30.5515 25.1633 29.7802 24.4123C29.0089 23.641 28.6029 22.484 28.6029 21.0226V11.7264H25.8628V7.97136H28.6029V3.44503H32.8248V7.97136H36.1739V11.7264H32.8045V20.1092C32.8045 20.4949 32.906 21.733 34.0832 21.733C34.6922 21.733 35.2605 21.5097 35.4635 21.2662V21.2865ZM37.6962 25.1836V7.99165H41.918V25.1836H37.6962ZM39.7868 0.96875C40.2877 0.968766 40.7775 1.11707 41.1943 1.39497C41.611 1.67287 41.9362 2.06793 42.1288 2.53036C42.3215 2.99279 42.3729 3.50189 42.2766 3.99349C42.1804 4.48509 41.9407 4.93719 41.5879 5.29282C41.2351 5.64844 40.7849 5.89167 40.2941 5.99185C39.8033 6.09203 39.2938 6.04467 38.8299 5.85575C38.3659 5.66682 37.9683 5.34479 37.6871 4.93023C37.4058 4.51567 37.2536 4.02715 37.2496 3.52622C37.2496 2.146 38.4066 0.96875 39.7868 0.96875ZM53.2643 7.56541C56.9178 7.56541 58.9273 9.55456 58.9273 13.1878V25.1633H54.7054V14.2027C54.6242 12.2541 53.6905 11.361 51.7014 11.361C49.9152 11.361 48.4741 12.4571 47.7434 13.3908V25.1633H43.5215V8.01195H47.7434V9.83872C48.9612 8.66147 50.9098 7.606 53.2643 7.606V7.56541ZM72.9731 9.77783V1.69946H77.1949V25.2039H72.9731V23.4177C72.327 24.0991 71.5499 24.6427 70.6883 25.016C69.8267 25.3892 68.8985 25.5843 67.9596 25.5895C63.3521 25.5895 60.2669 21.9766 60.2669 16.5978C60.2669 11.1986 63.3521 7.58571 67.9596 7.58571C68.9006 7.59 69.8307 7.78668 70.6929 8.16366C71.555 8.54063 72.331 9.08994 72.9731 9.77783ZM72.9731 13.4111C72.5026 12.7983 71.9013 12.2981 71.2131 11.947C70.5249 11.5958 69.7671 11.4026 68.9948 11.3813C66.3764 11.3813 64.6308 13.472 64.6308 16.5978C64.6308 19.7033 66.3764 21.7939 68.9948 21.7939C70.5171 21.7939 72.1815 20.982 72.9731 19.8047V13.4111ZM87.0595 7.58571C92.0526 7.58571 95.5235 11.4422 95.5235 16.9225V18.0795H82.7564C83.1827 20.4949 85.0906 22.0375 87.6887 22.0375C89.3328 22.0375 91.1392 21.3271 92.1744 20.2919L92.4586 20.0483L94.468 22.9305L94.265 23.1132C92.3631 24.7996 89.8836 25.6867 87.3436 25.5895C82.0663 25.5895 78.3519 21.8751 78.3519 16.5775C78.3108 15.4078 78.5066 14.242 78.9273 13.1499C79.348 12.0578 79.9851 11.062 80.8002 10.2222C81.6153 9.3824 82.5918 8.71597 83.6708 8.26292C84.7499 7.80986 85.9094 7.57952 87.0798 7.58571H87.0595ZM82.7361 14.8928H91.4031C91.1595 12.315 89.0283 11.1378 87.0595 11.1378C84.096 11.1378 82.9797 13.3705 82.7361 14.9131V14.8928ZM105.733 7.58571H106.038V11.8482L105.672 11.7873C105.368 11.7264 104.982 11.6858 104.596 11.6858C103.236 11.6858 101.349 12.6398 100.638 13.6546V25.1633H96.4166V7.99165H100.659V9.89961C102.059 8.4382 103.906 7.58571 105.733 7.58571Z" fill="#191919"/>
</svg>
